<svg xmlns="http://www.w3.org/2000/svg" viewBox="0 0 380 380">
  <path fill="#E24329" d="M190 353.2L253.2 159H126.8z"/>
  <path fill="#FC6D26" d="M190 353.2l-63.2-194.2H30.6z"/>
  <path fill="#FCA326" d="M30.6 159L7.8 229.2c-2.1 6.4.2 13.4 5.6 17.4L190 353.2z"/>
  <path fill="#E24329" d="M30.6 159h96.2L88.3 36.8c-2.3-7.2-12.5-7.2-14.8 0z"/>
  <path fill="#FC6D26" d="M190 353.2l63.2-194.2h96.2z"/>
  <path fill="#FCA326" d="M349.4 159l22.8 70.2c2.1 6.4-.2 13.4-5.6 17.4L190 353.2z"/>
  <path fill="#E24329" d="M349.4 159h-96.2l38.5-122.2c2.3-7.2 12.5-7.2 14.8 0z"/>
</svg>
